<svg width="27" height="26" viewBox="0 0 27 26" fill="none" xmlns="http://www.w3.org/2000/svg">
<g id="Notification Icon">
<path id="icon" d="M5.07739 20.5834V18.4167H7.24406V10.8334C7.24406 9.33474 7.69545 8.00766 8.59823 6.8521C9.501 5.67849 10.6746 4.91113 12.1191 4.55002V3.79169C12.1191 3.3403 12.2725 2.96113 12.5795 2.65419C12.9045 2.32919 13.2927 2.16669 13.7441 2.16669C14.1954 2.16669 14.5746 2.32919 14.8816 2.65419C15.2066 2.96113 15.3691 3.3403 15.3691 3.79169V4.55002C16.8135 4.91113 17.9871 5.67849 18.8899 6.8521C19.7927 8.00766 20.2441 9.33474 20.2441 10.8334V18.4167H22.4107V20.5834H5.07739ZM13.7441 23.8334C13.1482 23.8334 12.6336 23.6257 12.2003 23.2104C11.785 22.7771 11.5774 22.2625 11.5774 21.6667H15.9107C15.9107 22.2625 15.6941 22.7771 15.2607 23.2104C14.8454 23.6257 14.3399 23.8334 13.7441 23.8334ZM9.41073 18.4167H18.0774V10.8334C18.0774 9.64169 17.6531 8.62155 16.8045 7.77294C15.9559 6.92432 14.9357 6.50002 13.7441 6.50002C12.5524 6.50002 11.5323 6.92432 10.6836 7.77294C9.83503 8.62155 9.41073 9.64169 9.41073 10.8334V18.4167Z" fill="#1D1B20" fill-opacity="0.8"/>
</g>
</svg>
